# Blender 3.3.1
# www.blender.org
mtllib MarkerX.mtl
o MarkerX
v 0.000000 -0.530808 1.414214
v -0.000000 0.530808 1.414213
v -1.414213 -0.530808 0.000000
v -1.414214 0.530808 -0.000000
v 1.414214 -0.530808 0.000000
v 1.414213 0.530808 -0.000000
v 0.000000 -0.530808 -1.414213
v -0.000000 0.530808 -1.414214
v 2.474874 0.530808 -3.889087
v 2.474874 -0.530808 -3.889088
v 3.889087 -0.530808 -2.474874
v 3.889087 0.530808 -2.474874
v -3.889088 0.530806 -2.474874
v -3.889088 -0.530809 -2.474874
v -2.474874 -0.530809 -3.889088
v -2.474874 0.530806 -3.889088
v -3.889088 -0.530808 2.474874
v -2.474874 -0.530808 3.889087
v -2.474874 0.530808 3.889087
v -3.889087 0.530808 2.474874
v 2.474874 -0.530806 3.889088
v 2.474874 0.530809 3.889088
v 3.889088 0.530809 2.474874
v 3.889088 -0.530806 2.474874
vn 0.7071 -0.0000 0.7071
vn 0.7071 -0.0000 -0.7071
vn -0.0000 1.0000 -0.0000
vn -0.7071 -0.0000 0.7071
vn -0.0000 -1.0000 -0.0000
vn -0.7071 -0.0000 -0.7071
vt 1.029888 0.947659
vt 1.029888 0.053333
vt 0.812271 0.504948
vt 0.962215 0.947659
vt 0.962215 0.053333
vt 0.566908 0.367696
vt 0.633130 1.043247
vt 0.757746 0.430776
vt 0.430112 0.745139
vt 0.565457 1.043247
vt 0.512383 0.293524
vt 0.362439 0.745139
vt 0.565457 0.745139
vt 0.866796 0.367696
vt 0.700803 1.043247
vt 0.497785 0.745139
vt 0.512383 0.504948
vt 0.633130 1.043247
vt 1.029888 0.351442
vt 0.497785 1.043247
vt 0.812271 0.293524
vt 0.962215 0.351442
vt 0.430112 1.043247
vt 0.457858 0.430776
vt 0.362439 0.670968
vt 0.700803 0.915487
vt 0.430112 0.745139
vt 0.768476 0.915487
vt 0.497785 0.745139
vt 0.907690 0.053333
vt 0.768476 0.745139
vt 0.565457 1.043247
vt 0.962215 0.127505
vt 0.416964 0.745139
vt 0.700803 0.745139
vt 0.497785 1.043247
vt 1.029888 0.223681
vt 0.416964 0.163724
vt 0.565457 0.745139
vt 1.097561 0.223681
vt 0.662327 0.300976
vt 0.633130 0.745139
vt 1.029888 0.649550
vt 1.097561 0.053333
vt 0.716852 0.163724
vt 0.962215 0.649550
vt 1.029888 0.053333
vt 0.362439 0.300976
vt 0.903821 0.745139
vt 0.662327 0.670968
vt 0.430112 1.043247
vt 1.029888 0.649550
vt 0.903821 0.915487
vt 0.716852 0.745139
vt 0.962215 0.649550
vt 0.836148 0.915487
vt 0.662327 0.127505
vt 0.836148 0.745139
vt 0.607802 0.053333
vt 0.362439 1.043247
vt 1.029888 0.351442
vt 0.836148 0.745139
vt 0.907690 0.634748
vt 0.962215 0.351442
vt 0.768476 0.745139
vt 0.662327 0.497496
vt 0.768476 0.915487
vt 0.607802 0.634748
vt 0.633130 0.745139
vt 0.836148 0.915487
vt 0.962215 0.497496
vt 0.700803 0.745139
s 1
usemtl Material.006
f 1/1/1 2/4/1 19/55/1 18/52/1
f 8/22/2 7/19/2 15/43/2 16/46/2
f 8/24/3 6/17/3 12/34/3 9/25/3
f 2/5/4 1/2/4 21/61/4 22/64/4
f 3/8/5 7/21/5 5/14/5 1/3/5
f 8/24/3 4/11/3 2/6/3 6/17/3
f 10/28/2 9/26/2 12/35/2 11/31/2
f 7/20/6 8/23/6 9/27/6 10/29/6
f 6/16/1 5/13/1 11/32/1 12/36/1
f 5/14/5 7/21/5 10/30/5 11/33/5
f 14/40/6 13/37/6 16/47/6 15/44/6
f 7/21/5 3/8/5 14/41/5 15/45/5
f 4/11/3 8/24/3 16/48/3 13/38/3
f 3/7/4 4/10/4 13/39/4 14/42/4
f 18/53/4 19/56/4 20/58/4 17/49/4
f 2/6/3 4/11/3 20/59/3 19/57/3
f 3/8/5 1/3/5 18/54/5 17/50/5
f 4/12/6 3/9/6 17/51/6 20/60/6
f 24/70/1 23/67/1 22/65/1 21/62/1
f 1/3/5 5/14/5 24/71/5 21/63/5
f 6/17/3 2/6/3 22/66/3 23/68/3
f 5/15/2 6/18/2 23/69/2 24/72/2
